Coordinates
version=1
nRows=9
nColumns=63
inDegrees=yes

Units are S.I. units (second, meters, Newtons, ...)
If the header above contains a line with 'inDegrees', this indicates whether rotational values are in degrees (yes) or radians (no).

endheader
time	pelvis_tilt	pelvis_list	pelvis_rotation	pelvis_tx	pelvis_ty	pelvis_tz	hip_flexion_r	hip_adduction_r	hip_rotation_r	knee_angle_r	knee_angle_r_beta	ankle_angle_r	subtalar_angle_r	mtp_angle_r	hip_flexion_l	hip_adduction_l	hip_rotation_l	knee_angle_l	knee_angle_l_beta	ankle_angle_l	subtalar_angle_l	mtp_angle_l	L5_S1_Flex_Ext	L5_S1_Lat_Bending	L5_S1_axial_rotation	L4_L5_Flex_Ext	L4_L5_Lat_Bending	L4_L5_axial_rotation	L3_L4_Flex_Ext	L3_L4_Lat_Bending	L3_L4_axial_rotation	L2_L3_Flex_Ext	L2_L3_Lat_Bending	L2_L3_axial_rotation	L1_L2_Flex_Ext	L1_L2_Lat_Bending	L1_L2_axial_rotation	L1_T12_Flex_Ext	L1_T12_Lat_Bending	L1_T12_axial_rotation	Abs_r3	Abs_r2	Abs_r1	Abs_t1	Abs_t2	neck_flexion	neck_bending	neck_rotation	arm_flex_r	arm_add_r	arm_rot_r	elbow_flex_r	pro_sup_r	wrist_flex_r	wrist_dev_r	arm_flex_l	arm_add_l	arm_rot_l	elbow_flex_l	pro_sup_l	wrist_flex_l	wrist_dev_l
7.677966	0.984403	-17.524940	111.765106	0.193767	0.335496	0.663653	2.936396	-1.543912	-26.328412	5.385997	0.094003	21.753949	14.151963	0.000000	5.658237	3.431916	4.001538	1.869513	0.032629	20.383477	-0.187561	0.000000	0.114348	-0.096119	-1.224655	0.212355	-0.127838	-1.301196	0.187862	-0.233703	-1.301196	0.130688	-0.233703	-1.071573	0.106183	-0.196006	-0.995032	0.065338	-0.148888	-0.918491	0.816773	-1.087316	-6.811163	0.000000	0.000000	26.587102	13.541453	-3.736258	14.521165	-17.769979	88.758469	27.198661	28.865894	21.198138	2.864969	12.239330	-16.967822	62.504196	30.840455	86.831615	22.766961	12.371722
7.694915	1.076966	-17.470406	111.486926	0.194011	0.335659	0.663112	2.983329	-1.433758	-26.094216	5.484905	0.095730	21.518513	13.932786	0.000000	5.549868	3.306673	3.256929	1.824162	0.031838	20.494326	0.357005	0.000000	0.111167	-0.085883	-1.162494	0.206448	-0.114225	-1.235150	0.182636	-0.208817	-1.235150	0.127053	-0.208817	-1.017182	0.103230	-0.175133	-0.944526	0.063521	-0.133033	-0.871870	0.794055	-0.971531	-6.465442	0.000000	0.000000	26.656006	12.908503	-3.910888	14.384350	-17.854993	88.120436	27.296501	29.840918	21.060602	2.894385	12.558182	-16.777423	63.295244	30.383267	86.405775	22.997559	11.612044
7.711864	1.145977	-17.408165	111.194675	0.194236	0.335817	0.662518	3.017521	-1.346424	-25.866762	5.601293	0.097761	21.302087	13.750081	0.000000	5.413351	3.203387	2.652994	1.759604	0.030711	20.549197	0.683913	0.000000	0.110032	-0.078121	-1.100059	0.204340	-0.103901	-1.168812	0.180772	-0.189944	-1.168812	0.125756	-0.189944	-0.962551	0.102176	-0.159305	-0.893798	0.062872	-0.121010	-0.825044	0.785947	-0.883722	-6.118197	0.000000	0.000000	26.748016	12.213280	-4.046129	14.249230	-17.937314	87.481672	27.397012	30.881368	20.862025	2.881032	12.800394	-16.586698	63.835028	29.951869	85.927474	23.284967	10.935036
7.728814	1.188602	-17.346595	110.904650	0.194421	0.335969	0.661900	3.040603	-1.286776	-25.652325	5.728666	0.099984	21.120071	13.618272	0.000000	5.266322	3.128229	2.085046	1.690014	0.029496	20.586668	0.965787	0.000000	0.112335	-0.073147	-1.042801	0.208617	-0.097285	-1.107976	0.184555	-0.177849	-1.107976	0.128387	-0.177849	-0.912450	0.104314	-0.149160	-0.847275	0.064188	-0.113304	-0.782100	0.802395	-0.827448	-5.799744	0.000000	0.000000	26.859713	11.494612	-4.082126	14.135551	-18.007239	86.933935	27.488996	31.963592	20.597987	2.777925	13.002512	-16.395563	64.308410	29.500131	85.401415	23.621183	10.290596
7.745763	1.205146	-17.298014	110.637706	0.194551	0.336097	0.661276	3.062559	-1.259275	-25.451496	5.863246	0.102333	20.995072	13.527398	0.000000	5.122916	3.088606	1.715428	1.614467	0.028178	20.561304	0.997968	0.000000	0.119555	-0.071084	-0.999825	0.222026	-0.094542	-1.062314	0.196417	-0.172834	-1.062314	0.136640	-0.172834	-0.874847	0.111019	-0.144954	-0.812358	0.068314	-0.110109	-0.749869	0.853970	-0.804116	-5.560727	0.000000	0.000000	26.987576	10.797731	-3.948333	14.073820	-18.049706	86.626115	27.559020	32.858938	20.317714	2.583727	13.113720	-16.217628	64.559142	29.064511	84.893704	23.988067	9.770482
7.762712	1.202800	-17.252413	110.388505	0.194633	0.336230	0.660696	3.077600	-1.254593	-25.298799	5.996696	0.104662	20.941584	13.528614	0.000000	4.985714	3.070692	1.305802	1.544193	0.026951	20.560614	1.134950	0.000000	0.128662	-0.070912	-0.964347	0.238939	-0.094313	-1.024619	0.211379	-0.172416	-1.024619	0.147048	-0.172416	-0.843804	0.119476	-0.144604	-0.783532	0.073518	-0.109843	-0.723261	0.919022	-0.802172	-5.363411	0.000000	0.000000	27.124687	10.145343	-3.703473	14.034960	-18.079849	86.365855	27.607445	33.848800	20.026491	2.330972	13.268063	-16.047263	65.052967	28.569996	84.348334	24.347406	9.220555
7.779661	1.182417	-17.231231	110.160311	0.194689	0.336324	0.660155	3.108232	-1.274053	-25.095467	6.123046	0.106867	20.957364	13.490261	0.000000	4.877491	3.080339	1.012085	1.481311	0.025854	20.529899	1.165250	0.000000	0.141582	-0.073464	-0.943427	0.262933	-0.097707	-1.002391	0.232606	-0.178620	-1.002391	0.161815	-0.178620	-0.825499	0.131473	-0.149807	-0.766535	0.080900	-0.113795	-0.707570	1.011309	-0.831037	-5.247059	0.000000	0.000000	27.270622	9.573360	-3.326690	14.038575	-18.076686	86.258717	27.626678	34.663604	19.774234	2.058180	13.303457	-15.897478	65.176766	28.151619	83.908561	24.725192	8.925404
7.796610	1.146177	-17.236448	109.980467	0.194714	0.336376	0.659682	3.154967	-1.320648	-24.966329	6.243205	0.108964	21.041986	13.518041	0.000000	4.799436	3.120001	0.965573	1.417378	0.024738	20.449911	0.955036	0.000000	0.157064	-0.078594	-0.938987	0.291684	-0.104530	-0.997674	0.258041	-0.191093	-0.997674	0.179509	-0.191093	-0.821614	0.145850	-0.160269	-0.762927	0.089747	-0.121742	-0.704240	1.121896	-0.889070	-5.222366	0.000000	0.000000	27.415799	9.102003	-2.771913	14.013125	-18.068358	85.907779	27.643913	35.633289	19.537398	1.871571	13.231676	-15.793175	64.993273	27.846292	83.512039	25.061031	8.840100
7.813559	1.102039	-17.269031	109.843267	0.194726	0.336385	0.659291	3.224807	-1.384681	-24.839368	6.354633	0.110909	21.165893	13.523956	0.000000	4.757656	3.180620	1.246841	1.355155	0.023652	20.284888	0.385158	0.000000	0.174902	-0.085648	-0.951840	0.324811	-0.113912	-1.011330	0.287347	-0.208245	-1.011330	0.199896	-0.208245	-0.832860	0.162414	-0.174654	-0.773370	0.099939	-0.132669	-0.713880	1.249309	-0.968868	-5.293848	0.000000	0.000000	27.559566	8.695225	-2.117720	14.041272	-18.029127	85.742576	27.634611	36.297999	19.353724	1.684883	13.004525	-15.725269	64.301613	27.691061	83.235736	25.333744	9.009007
